Format : AVI
Format/Info : Audio Video Interleave
File size : 538 MiB
Duration : 46mn 23s
Overall bit rate : 1 623 Kbps
Writing library : VirtualDub build 32842/release

Video
ID : 0
Format : MPEG-4 Visual
Format profile : Advanced Simple@L5
Format settings, BVOP : 2
Format settings, QPel : No
Format settings, GMC : No warppoints
Format settings, Matrix : Default (H.263)
Muxing mode : Packed bitstream
Codec ID : XVID
Codec ID/Hint : XviD
Duration : 46mn 23s
Bit rate : 1 485 Kbps
Width : 624 pixels
Height : 352 pixels
Display aspect ratio : 16:9
Frame rate : 25.000 fps
Color space : YUV
Chroma subsampling : 4:2:0
Bit depth : 8 bits
Scan type : Progressive
Compression mode : Lossy
Bits/(Pixel*Frame) : 0.270
Stream size : 493 MiB (92%)
Writing library : XviD 64

Audio
ID : 1
Format : MPEG Audio
Format version : Version 1
Format profile : Layer 3
Codec ID : 55
Codec ID/Hint : MP3
Duration : 46mn 22s
Bit rate mode : Constant
Bit rate : 128 Kbps
Channel(s) : 2 channels
Sampling rate : 48.0 KHz
Compression mode : Lossy
Stream size : 42.5 MiB (8%)
Alignment : Split accross interleaves
Interleave, duration : 40 ms (1.00 video frame)
Interleave, preload duration : 500 ms




Avril is busy keeping secrets from her family; with no job and no money, but always a gift to hand, something doesn't quite add up.

Mimi has designs on fit jogger Neil, but he's unsure of her advances - because he only wants sex. Mimi is keen to spice up her sex life, but Karen raises concerns about Neil's calorific role-play.

When 12-year-old Bean tries to shoplift, Chesney phones her dad, Gorky, who is Chesney's delivery driver, but Chesney soon becomes concerned for Bean's welfare and decides to try and rescue her.

And the law finally catches up with Avril when a bailiff arrives; she breaks down and confesses leaving Jackson gobsmacked. Will he and Letitia promise to support her and help pay back all the money she owes?
